<?xml version="1.0" encoding="utf-8"?>
<!-- Generator: Adobe Illustrator 16.0.3, SVG Export Plug-In . SVG Version: 6.00 Build 0)  -->
<!DOCTYPE svg PUBLIC "-//W3C//DTD SVG 1.1//EN" "http://www.w3.org/Graphics/SVG/1.1/DTD/svg11.dtd">
<svg version="1.1" id="Capa_1" xmlns="http://www.w3.org/2000/svg" xmlns:xlink="http://www.w3.org/1999/xlink" x="0px" y="0px"
	 width="500px" height="300px" viewBox="450 200 950 500" enable-background="new 450 200 950 500" xml:space="preserve">
<g>
	
	<g>
		<g>
			<path d="M510.441,504.846c5.141,0,10.071,0.902,14.79,2.703V512c-4.825-2.172-9.753-3.259-14.79-3.259
				c-6.997,0-12.748,2.489-17.253,7.462c-4.506,4.871-6.758,10.903-6.758,18.102s2.252,13.204,6.758,18.021
				c4.558,5.027,10.31,7.541,17.253,7.541c4.345,0,8.561-0.792,12.643-2.378v-22.111H509.17v-3.896h18.764v28.465
				c-5.515,2.545-11.343,3.817-17.493,3.817c-8.375,0-15.265-2.782-20.673-8.349c-5.459-5.617-8.189-12.643-8.189-21.069
				c0-8.375,2.73-15.374,8.189-20.993C495.281,507.682,502.172,504.846,510.441,504.846z"/>
			<path d="M557.32,520.588c4.253,0,7.868,1.511,10.845,4.531c2.969,2.971,4.454,6.574,4.454,10.814
				c0,2.387-0.837,4.294-2.512,5.725c-1.674,1.432-3.786,2.147-6.337,2.147h-20.809c0.213,4.589,1.541,8.36,3.986,11.315
				c2.605,3.164,6.088,4.745,10.448,4.745c4.251,0,8.505-0.767,12.758-2.306v4.295c-4.147,1.271-8.4,1.907-12.758,1.907
				c-6.327,0-11.165-2.066-14.514-6.202c-3.181-3.867-4.771-8.983-4.771-15.345c0-6.202,1.51-11.237,4.533-15.107
				C546.047,522.763,550.939,520.588,557.32,520.588z M567.768,535.934c0-2.861-1.038-5.485-3.111-7.871
				c-2.073-2.385-4.493-3.578-7.258-3.578c-4.308,0-7.764,1.51-10.371,4.531c-2.34,2.812-3.696,6.442-4.067,10.895h20.819
				c1.064,0,1.994-0.385,2.792-1.153C567.37,537.99,567.768,537.048,567.768,535.934z"/>
			<path d="M602.275,526.313c-2.85-1.272-5.885-1.908-9.104-1.908c-6.123,0-9.183,2.307-9.183,6.918c0,2.492,1.767,4.639,5.3,6.439
				l9.967,5.09c3.549,2.439,5.327,5.513,5.327,9.223c0,3.976-1.617,7.025-4.851,9.145c-2.704,1.642-5.91,2.465-9.621,2.465
				c-4.347,0-8.03-0.557-11.053-1.67v-4.691c3.499,1.75,7.078,2.623,10.733,2.623c2.597,0,4.824-0.635,6.681-1.906
				c2.066-1.432,3.1-3.262,3.1-5.488c0-2.809-1.767-5.166-5.298-7.076c-1.635-0.9-3.27-1.748-4.905-2.544
				c-1.635-0.794-3.243-1.669-4.824-2.624c-1.884-1.059-3.255-2.316-4.116-3.777c-0.861-1.455-1.292-3.033-1.292-4.729
				c0-3.868,1.378-6.785,4.136-8.747c2.437-1.695,5.539-2.544,9.303-2.544c3.338,0,6.572,0.556,9.7,1.669V526.313z"/>
			<path d="M626.525,563.922c-1.379,0-2.651-0.227-3.817-0.676c-1.165-0.451-2.185-1.086-3.061-1.908
				c-0.875-0.822-1.564-1.789-2.065-2.902c-0.506-1.113-0.757-2.332-0.757-3.658v-28.861h-7.95v-3.896h7.95v-12.324h4.851v12.324
				h9.779v3.896h-9.779v28.795c0,1.375,0.477,2.605,1.432,3.688c0.952,1.085,2.093,1.626,3.418,1.626
				c1.854,0,3.868-0.557,6.043-1.67v4.056C630.712,563.418,628.697,563.922,626.525,563.922z"/>
			<path d="M640.44,501.666h4.851v4.849h-4.851V501.666z M645.291,522.099v40.313h-4.851v-40.313H645.291z"/>
			<path d="M693.792,542.613c0,6.413-1.618,11.477-4.851,15.188c-3.34,3.975-8.164,5.962-14.473,5.962
				c-6.255,0-11.131-2.146-14.63-6.44c-3.34-4.027-5.009-9.248-5.009-15.664c0-6.254,1.642-11.316,4.93-15.188
				c3.499-3.973,8.375-5.962,14.63-5.962c6.149,0,10.974,2.175,14.473,6.521C692.146,531.111,693.792,536.307,693.792,542.613z
				 M660.158,541.621c0,5.236,1.112,9.468,3.339,12.693c2.544,3.701,6.202,5.552,10.972,5.552c4.823,0,8.429-1.69,10.814-5.076
				c2.119-2.909,3.18-6.981,3.18-12.219c0-5.183-1.086-9.413-3.259-12.693c-2.492-3.648-6.098-5.474-10.814-5.474
				c-4.824,0-8.455,1.666-10.893,4.999C661.271,532.419,660.158,536.49,660.158,541.621z M678.444,501.666h4.851l-6.838,10.017
				h-3.896L678.444,501.666z"/>
			<path d="M702.14,562.49v-37.051c8.608-3.128,14.53-4.692,17.773-4.692c2.232,0,4.276,0.366,6.138,1.095
				c1.858,0.731,3.441,1.753,4.742,3.063c1.303,1.311,2.312,2.893,3.029,4.748c0.717,1.857,1.076,3.896,1.076,6.123v26.715h-4.851
				v-26.715c0-1.592-0.266-3.063-0.794-4.414c-0.532-1.352-1.262-2.529-2.188-3.537c-0.928-1.007-2.041-1.79-3.34-2.346
				c-1.3-0.558-2.743-0.836-4.333-0.836c-3.923,0-8.058,1.035-12.404,3.103v34.745H702.14z"/>
			<path d="M786.854,520.668c3.909,0,7.767,0.689,11.572,2.068v-20.991h4.852v58.6c-5.195,2.226-10.205,3.339-15.027,3.339
				c-6.311,0-11.397-2.094-15.267-6.282c-3.925-4.239-5.885-9.462-5.885-15.663s1.749-11.263,5.248-15.186
				C775.781,522.629,780.617,520.668,786.854,520.668z M787.328,524.563c-4.861,0-8.588,1.669-11.176,5.01
				c-2.484,3.129-3.727,7.185-3.727,12.165c0,4.984,1.48,9.197,4.439,12.643c3.064,3.71,7.029,5.564,11.891,5.564
				c2.748,0,5.971-0.688,9.67-2.065v-31.327C794.992,525.228,791.291,524.563,787.328,524.563z"/>
			<path d="M831.627,520.588c4.255,0,7.869,1.511,10.847,4.531c2.969,2.971,4.454,6.574,4.454,10.814
				c0,2.387-0.838,4.294-2.512,5.725c-1.675,1.432-3.788,2.147-6.338,2.147H817.27c0.213,4.589,1.541,8.36,3.986,11.315
				c2.605,3.164,6.089,4.745,10.448,4.745c4.252,0,8.505-0.767,12.759-2.306v4.295c-4.147,1.271-8.402,1.907-12.759,1.907
				c-6.327,0-11.165-2.066-14.514-6.202c-3.182-3.867-4.771-8.983-4.771-15.345c0-6.202,1.512-11.237,4.533-15.107
				C820.354,522.763,825.246,520.588,831.627,520.588z M842.077,535.934c0-2.861-1.038-5.485-3.111-7.871
				c-2.075-2.385-4.493-3.578-7.258-3.578c-4.308,0-7.766,1.51-10.371,4.531c-2.341,2.812-3.695,6.442-4.067,10.895h20.819
				c1.063,0,1.994-0.385,2.792-1.153C841.678,537.99,842.077,537.048,842.077,535.934z"/>
			<path d="M883.582,506.355v56.056h-4.851v-56.056H883.582z"/>
			<path d="M896.223,562.49v-37.051c8.606-3.128,14.53-4.692,17.773-4.692c2.232,0,4.277,0.366,6.136,1.095
				c1.86,0.731,3.443,1.753,4.744,3.063c1.303,1.311,2.312,2.893,3.03,4.748c0.716,1.857,1.075,3.896,1.075,6.123v26.715h-4.851
				v-26.715c0-1.592-0.266-3.063-0.796-4.414s-1.26-2.529-2.186-3.537c-0.928-1.007-2.041-1.79-3.34-2.346
				c-1.3-0.558-2.743-0.836-4.333-0.836c-3.923,0-8.06,1.035-12.404,3.103v34.745H896.223z"/>
			<path d="M941.145,522.099l13.518,34.826l12.482-34.826h4.136l-14.552,40.313h-5.246l-15.507-40.313H941.145z"/>
			<path d="M994.462,520.588c4.255,0,7.871,1.511,10.849,4.531c2.967,2.971,4.452,6.574,4.452,10.814
				c0,2.387-0.837,4.294-2.512,5.725c-1.675,1.432-3.788,2.147-6.338,2.147h-20.809c0.213,4.589,1.543,8.36,3.986,11.315
				c2.605,3.164,6.089,4.745,10.448,4.745c4.254,0,8.505-0.767,12.759-2.306v4.295c-4.147,1.271-8.4,1.907-12.759,1.907
				c-6.326,0-11.164-2.066-14.514-6.202c-3.18-3.867-4.771-8.983-4.771-15.345c0-6.202,1.513-11.237,4.533-15.107
				C983.19,522.763,988.083,520.588,994.462,520.588z M1004.912,535.934c0-2.861-1.036-5.485-3.111-7.871
				c-2.073-2.385-4.491-3.578-7.258-3.578c-4.308,0-7.764,1.51-10.371,4.531c-2.34,2.812-3.695,6.442-4.067,10.895h20.821
				c1.061,0,1.994-0.385,2.79-1.153C1004.514,537.99,1004.912,537.048,1004.912,535.934z"/>
			<path d="M1019.304,562.49v-37.051c8.607-3.128,14.532-4.692,17.772-4.692c2.232,0,4.277,0.366,6.138,1.095
				c1.858,0.731,3.441,1.753,4.742,3.063c1.304,1.311,2.312,2.893,3.03,4.748c0.717,1.857,1.075,3.896,1.075,6.123v26.715h-4.851
				v-26.715c0-1.592-0.266-3.063-0.794-4.414c-0.53-1.352-1.26-2.529-2.187-3.537c-0.928-1.007-2.041-1.79-3.341-2.346
				c-1.299-0.558-2.743-0.836-4.333-0.836c-3.923,0-8.057,1.035-12.402,3.103v34.745H1019.304z"/>
			<path d="M1077.504,563.922c-1.378,0-2.65-0.227-3.816-0.676c-1.166-0.451-2.187-1.086-3.061-1.908
				c-0.875-0.822-1.564-1.789-2.068-2.902c-0.503-1.113-0.756-2.332-0.756-3.658v-28.861h-7.951v-3.896h7.951v-12.324h4.851v12.324
				h9.781v3.896h-9.781v28.795c0,1.375,0.477,2.605,1.432,3.688c0.954,1.085,2.095,1.626,3.419,1.626
				c1.855,0,3.869-0.557,6.042-1.67v4.056C1081.691,563.418,1079.677,563.922,1077.504,563.922z"/>
			<path d="M1120.043,558.993c-4.823,3.233-10.391,4.849-16.697,4.849c-4.401,0-8.059-1.086-10.974-3.259
				c-2.81-2.228-4.214-5.089-4.214-8.588c0-3.869,1.67-6.97,5.01-9.303c3.763-2.649,9.248-3.976,16.458-3.976h5.566v-5.613
				c0-2.268-0.85-4.243-2.546-5.93c-1.694-1.74-3.814-2.61-6.359-2.61c-4.878,0-9.356,0.796-13.437,2.386v-4.293
				c4.134-1.324,8.905-1.988,14.31-1.988c3.605,0,6.654,1.192,9.146,3.578c2.49,2.334,3.736,5.275,3.736,8.826V558.993z
				 M1115.192,542.613h-5.089c-5.777,0-10.15,1.002-13.119,3.008c-2.439,1.635-3.657,3.746-3.657,6.332
				c0,2.269,0.927,4.169,2.782,5.699s4.374,2.293,7.554,2.293c4.241,0,8.083-0.975,11.529-2.926V542.613z"/>
			<path d="M1148.028,524.643c-3.763,0-7.473,0.61-11.13,1.828v36.02h-4.852v-38.496c4.931-2.164,10.416-3.247,16.46-3.247
				c0.583,0,1.087,0,1.511,0s0.769,0.026,1.033,0.079v3.976c-0.743-0.052-1.365-0.092-1.869-0.119
				C1148.677,524.658,1148.294,524.643,1148.028,524.643z"/>
			<path d="M1158.685,501.666h4.849v4.849h-4.849V501.666z M1163.533,522.099v40.313h-4.849v-40.313H1163.533z"/>
			<path d="M1212.035,542.613c0,6.413-1.619,11.477-4.851,15.188c-3.339,3.975-8.164,5.962-14.472,5.962
				c-6.254,0-11.132-2.146-14.631-6.44c-3.339-4.027-5.008-9.248-5.008-15.664c0-6.254,1.643-11.316,4.929-15.188
				c3.499-3.973,8.375-5.962,14.631-5.962c6.148,0,10.972,2.175,14.471,6.521C1210.391,531.111,1212.035,536.307,1212.035,542.613z
				 M1178.401,541.621c0,5.236,1.113,9.468,3.339,12.693c2.546,3.701,6.202,5.552,10.973,5.552c4.824,0,8.428-1.69,10.813-5.076
				c2.12-2.909,3.182-6.981,3.182-12.219c0-5.183-1.089-9.413-3.261-12.693c-2.492-3.648-6.096-5.474-10.813-5.474
				c-4.823,0-8.456,1.666-10.894,4.999C1179.515,532.419,1178.401,536.49,1178.401,541.621z"/>
			<path d="M1241.611,526.313c-2.849-1.272-5.885-1.908-9.104-1.908c-6.123,0-9.184,2.307-9.184,6.918
				c0,2.492,1.767,4.639,5.3,6.439l9.967,5.09c3.55,2.439,5.327,5.513,5.327,9.223c0,3.976-1.617,7.025-4.851,9.145
				c-2.703,1.642-5.912,2.465-9.62,2.465c-4.348,0-8.032-0.557-11.053-1.67v-4.691c3.499,1.75,7.077,2.623,10.733,2.623
				c2.597,0,4.823-0.635,6.679-1.906c2.067-1.432,3.102-3.262,3.102-5.488c0-2.809-1.767-5.166-5.298-7.076
				c-1.635-0.9-3.271-1.748-4.905-2.544c-1.635-0.794-3.242-1.669-4.825-2.624c-1.882-1.059-3.255-2.316-4.114-3.777
				c-0.861-1.455-1.292-3.033-1.292-4.729c0-3.868,1.379-6.785,4.134-8.747c2.438-1.695,5.54-2.544,9.305-2.544
				c3.339,0,6.57,0.556,9.699,1.669V526.313z"/>
		</g>
	</g>
	<g>
		<g>
			<path d="M482.197,442.765c0.316-1.267,0.681-2.44,1.094-3.519c0.412-1.078,0.776-2.06,1.094-2.949l51.262-127.633
				c0.191-0.697,0.713-1.475,1.57-2.332c0.855-0.855,2.012-1.283,3.472-1.283H556c1.521,0,2.615,0.381,3.281,1.141
				c0.666,0.762,1.157,1.427,1.475,1.998l3.138,7.418l50.217,125.638c0,0.189,0.047,0.523,0.143,0.998
				c0.096,0.477,0.143,0.874,0.143,1.188c0,1.902-1.395,2.854-4.185,2.854h-18.737c-1.395,0-2.472-0.285-3.231-0.855
				c-0.762-0.57-1.397-1.458-1.904-2.663l-1.71-4.374c-1.206-3.045-2.411-6.088-3.615-9.131c-1.205-3.043-2.378-6.118-3.519-9.226
				h-58.681c-1.649,4.439-3.252,8.608-4.804,12.507c-1.554,3.898-2.869,7.309-3.947,10.224c-0.89,2.348-2.537,3.519-4.946,3.519
				h-19.02c-1.206,0-2.174-0.22-2.902-0.666c-0.729-0.441-1.093-1.107-1.093-1.996C482.102,443.24,482.133,442.955,482.197,442.765z
				 M548.391,341.285c-3.423,8.75-6.832,17.818-10.223,27.2c-3.393,9.386-6.801,18.421-10.225,27.106h40.516L548.391,341.285z"/>
			<path d="M634.652,309.519c0-2.979,1.394-4.47,4.186-4.47h58.206c6.402,0,12.394,1.206,17.974,3.615
				c5.579,2.409,10.446,5.675,14.601,9.795c4.152,4.124,7.417,8.973,9.795,14.552c2.377,5.58,3.566,11.508,3.566,17.786
				c0,4.375-0.604,8.559-1.807,12.553c-1.206,3.995-2.886,7.706-5.04,11.129c-2.156,3.423-4.725,6.514-7.704,9.273
				c-2.981,2.757-6.278,5.087-9.893,6.989l24.729,48.791c0.127,0.635,0.347,1.27,0.664,1.901c0.318,0.636,0.477,1.302,0.477,1.997
				c0,1.902-1.109,2.854-3.329,2.854h-22.064c-2.283,0-3.804-1.171-4.565-3.519l-23.016-45.652c-1.016,0-2.109,0.018-3.28,0.049
				c-1.175,0.033-2.792,0.047-4.851,0.047c-2.063,0-4.756,0-8.085,0s-7.626,0-12.889,0v44.986c0,2.727-1.458,4.089-4.374,4.089
				h-19.115c-1.271,0-2.283-0.332-3.045-0.998s-1.141-1.695-1.141-3.091V309.519z M714.828,350.939c0-2.719-0.508-5.363-1.521-7.924
				c-1.016-2.563-2.441-4.858-4.28-6.881c-1.839-2.024-4.028-3.668-6.562-4.936c-2.537-1.265-5.297-1.992-8.275-2.183
				c-2.22-0.062-4.391-0.11-6.515-0.143c-2.126-0.031-4.327-0.047-6.61-0.047h-18.737v44.131h25.109c1.269,0,2.458,0,3.567,0
				c1.108,0,2.297-0.063,3.566-0.191c2.979-0.189,5.722-0.886,8.227-2.088c2.505-1.2,4.643-2.799,6.419-4.793
				c1.773-1.992,3.154-4.27,4.138-6.832C714.335,356.49,714.828,353.785,714.828,350.939z"/>
			<path d="M766.945,309.234c0-1.141,0.365-2.124,1.094-2.949c0.729-0.823,1.762-1.236,3.092-1.236h19.307
				c0.443,0,0.935,0.096,1.475,0.285c0.537,0.189,1.03,0.477,1.474,0.855c0.442,0.381,0.823,0.825,1.141,1.332
				c0.317,0.509,0.477,1.079,0.477,1.713v56.494l53.355-57.73c1.267-1.965,2.664-2.949,4.185-2.949h27.201
				c1.712,0,2.567,0.381,2.567,1.141c0,0.509-0.381,1.175-1.141,1.998l-50.218,58.492l58.588,75.801
				c0.95,1.269,1.425,2.187,1.425,2.759c0,0.699-0.665,1.045-1.997,1.045h-28.911c-1.523,0-2.918-0.981-4.185-2.948l-44.701-56.969
				l-16.169,16.739v38.993c0,2.792-1.521,4.185-4.565,4.185h-19.307c-2.79,0-4.186-1.393-4.186-4.185V309.234z"/>
			<path d="M899.811,442.765c0.315-1.267,0.681-2.44,1.094-3.519s0.775-2.06,1.095-2.949l51.263-127.633
				c0.189-0.697,0.713-1.475,1.57-2.332c0.855-0.855,2.012-1.283,3.47-1.283h15.312c1.523,0,2.617,0.381,3.283,1.141
				c0.666,0.762,1.154,1.427,1.474,1.998l3.139,7.418l50.216,125.638c0,0.189,0.049,0.523,0.145,0.998
				c0.094,0.477,0.143,0.874,0.143,1.188c0,1.902-1.397,2.854-4.186,2.854h-18.736c-1.396,0-2.473-0.285-3.234-0.855
				c-0.761-0.57-1.395-1.458-1.901-2.663l-1.713-4.374c-1.204-3.045-2.411-6.088-3.612-9.131c-1.208-3.043-2.379-6.118-3.52-9.226
				h-58.683c-1.649,4.439-3.25,8.608-4.802,12.507c-1.556,3.898-2.869,7.309-3.946,10.224c-0.89,2.348-2.537,3.519-4.946,3.519
				H903.71c-1.205,0-2.173-0.22-2.899-0.666c-0.731-0.441-1.096-1.107-1.096-1.996C899.715,443.24,899.747,442.955,899.811,442.765z
				 M966.008,341.285c-3.426,8.75-6.834,17.818-10.227,27.2c-3.391,9.386-6.8,18.421-10.224,27.106h40.517L966.008,341.285z"/>
			<path d="M1111.993,309.234c0-1.141,0.347-2.124,1.041-2.949c0.695-0.823,1.738-1.236,3.128-1.236h18.861
				c1.075,0,2.086,0.381,3.033,1.141c0.947,0.762,1.422,1.777,1.422,3.044v132.865c0,2.792-1.485,4.185-4.455,4.185h-18.861
				c-2.779,0-4.169-1.393-4.169-4.185V309.234z"/>
			<path d="M1170.482,309.234c0-1.141,0.347-2.124,1.042-2.949c0.694-0.823,1.737-1.236,3.127-1.236h18.863
				c1.073,0,2.084,0.381,3.033,1.141c0.947,0.762,1.421,1.777,1.421,3.044v132.865c0,2.792-1.485,4.185-4.454,4.185h-18.863
				c-2.779,0-4.169-1.393-4.169-4.185V309.234z"/>
		</g>
	</g>
</g>
</svg>
