<?xml version="1.0" standalone="no"?>
<!DOCTYPE svg PUBLIC "-//W3C//DTD SVG 20010904//EN" "http://www.w3.org/TR/2001/REC-SVG-20010904/DTD/svg10.dtd">
<!-- Created using Karbon, part of Calligra: http://www.calligra.org/karbon -->
<svg xmlns="http://www.w3.org/2000/svg" xmlns:xlink="http://www.w3.org/1999/xlink" width="963.781pt" height="283.465pt">
<defs/>
<g id="layer0">
  <g id="group0" transform="translate(2.5317, 9.57334)" fill="none">
   <path id="shape0" transform="translate(0.625, 8.22007)" fill="#991c1a" d="M0 48.391L80.327 0L164.149 48.391L83.821 96.784L83.821 190.109L0 145.174Z"/>
   <path id="shape1" transform="translate(164.774, 8.22007)" fill="#991c1a" d="M83.822 0L0 48.391L83.822 93.325L83.822 190.109L171.134 141.717L171.134 48.391Z"/>
   <path id="shape2" transform="translate(84.446, 198.329)" fill="#991c1a" d="M80.328 48.391L164.15 0L164.114 98.911L87.314 145.176L0 96.784L0 0Z"/>
  </g>
  <g id="group1" transform="translate(439.247, 243.62)" fill="none">
   <g id="group2" transform="" fill="none">
    <path id="shape3" transform="translate(0.625, 11.4784)" fill="#000000" d="M28.862 0C34.003 0 38.933 0.902 43.652 2.703L43.652 7.154C38.827 4.982 33.899 3.895 28.862 3.895C21.865 3.895 16.114 6.384 11.609 11.357C7.103 16.228 4.851 22.26 4.851 29.459C4.851 36.658 7.103 42.663 11.609 47.48C16.167 52.507 21.919 55.021 28.862 55.021C33.207 55.021 37.423 54.229 41.505 52.643L41.505 30.532L27.591 30.532L27.591 26.636L46.355 26.636L46.355 55.101C40.84 57.646 35.012 58.918 28.862 58.918C20.487 58.918 13.597 56.136 8.189 50.569C2.73 44.952 0 37.926 0 29.5C0 21.125 2.73 14.126 8.189 8.507C13.702 2.836 20.593 0 28.862 0Z"/>
    <path id="shape4" transform="translate(57.156, 27.2204)" fill="#000000" d="M19.21 0C23.463 0 27.078 1.511 30.055 4.531C33.024 7.502 34.509 11.105 34.509 15.345C34.509 17.732 33.672 19.639 31.997 21.07C30.323 22.502 28.211 23.217 25.66 23.217L4.851 23.217C5.064 27.806 6.392 31.577 8.837 34.532C11.442 37.696 14.925 39.277 19.285 39.277C23.536 39.277 27.79 38.51 32.043 36.971L32.043 41.266C27.896 42.537 23.643 43.173 19.285 43.173C12.958 43.173 8.12 41.107 4.771 36.971C1.59 33.104 0 27.988 0 21.626C0 15.424 1.51 10.389 4.533 6.519C7.937 2.175 12.829 0 19.21 0ZM29.658 15.346C29.658 12.485 28.62 9.861 26.547 7.475C24.474 5.09 22.054 3.897 19.289 3.897C14.981 3.897 11.525 5.407 8.918 8.428C6.578 11.24 5.222 14.87 4.851 19.323L25.67 19.323C26.734 19.323 27.664 18.938 28.462 18.17C29.26 17.402 29.658 16.46 29.658 15.346Z"/>
    <path id="shape5" transform="translate(98.103, 27.1444)" fill="#000000" d="M23.218 5.801C20.368 4.529 17.333 3.893 14.114 3.893C7.991 3.893 4.931 6.2 4.931 10.811C4.931 13.303 6.698 15.45 10.231 17.25L20.198 22.34C23.747 24.779 25.525 27.853 25.525 31.563C25.525 35.539 23.908 38.588 20.674 40.708C17.97 42.35 14.764 43.173 11.053 43.173C6.706 43.173 3.023 42.616 0 41.503L0 36.812C3.499 38.562 7.078 39.435 10.733 39.435C13.33 39.435 15.557 38.8 17.414 37.529C19.48 36.097 20.514 34.267 20.514 32.041C20.514 29.232 18.747 26.875 15.216 24.965C13.581 24.065 11.946 23.217 10.311 22.421C8.676 21.627 7.068 20.752 5.487 19.797C3.603 18.738 2.232 17.481 1.371 16.02C0.51 14.565 0.079 12.987 0.079 11.291C0.079 7.423 1.457 4.506 4.215 2.544C6.652 0.849 9.754 0 13.518 0C16.856 0 20.09 0.556 23.218 1.669Z"/>
    <path id="shape6" transform="translate(127.921, 16.3294)" fill="#000000" d="M17.65 54.225C16.271 54.225 14.999 53.998 13.833 53.549C12.668 53.098 11.648 52.463 10.772 51.641C9.897 50.819 9.208 49.852 8.707 48.739C8.201 47.626 7.95 46.407 7.95 45.081L7.95 16.22L0 16.22L0 12.324L7.95 12.324L7.95 0L12.801 0L12.801 12.324L22.58 12.324L22.58 16.22L12.801 16.22L12.801 45.015C12.801 46.39 13.278 47.62 14.233 48.703C15.185 49.788 16.326 50.329 17.651 50.329C19.505 50.329 21.519 49.772 23.694 48.659L23.694 52.715C21.837 53.721 19.822 54.225 17.65 54.225Z"/>
    <path id="shape7" transform="translate(159.486, 8.29842)" fill="#000000" d="M0 0L4.851 0L4.851 4.849L0 4.849ZM4.851 20.433L4.851 60.746L0 60.746L0 20.433Z"/>
    <path id="shape8" transform="translate(173.875, 8.29842)" fill="#000000" d="M38.963 40.947C38.963 47.36 37.345 52.424 34.112 56.135C30.772 60.11 25.948 62.097 19.639 62.097C13.384 62.097 8.508 59.951 5.009 55.657C1.669 51.63 0 46.409 0 39.993C0 33.739 1.642 28.677 4.93 24.805C8.429 20.832 13.305 18.843 19.56 18.843C25.709 18.843 30.534 21.018 34.033 25.364C37.317 29.445 38.963 34.641 38.963 40.947ZM5.329 39.955C5.329 45.191 6.441 49.423 8.668 52.648C11.212 56.349 14.87 58.2 19.64 58.2C24.463 58.2 28.069 56.51 30.454 53.124C32.573 50.215 33.634 46.143 33.634 40.905C33.634 35.722 32.548 31.492 30.375 28.212C27.883 24.564 24.277 22.738 19.561 22.738C14.737 22.738 11.106 24.404 8.668 27.737C6.442 30.753 5.329 34.824 5.329 39.955ZM23.615 0L28.466 0L21.628 10.017L17.732 10.017Z"/>
    <path id="shape9" transform="translate(221.186, 27.3794)" fill="#000000" d="M0 41.743L0 4.692C8.608 1.564 14.53 0 17.773 0C20.005 0 22.049 0.366 23.911 1.095C25.769 1.826 27.352 2.848 28.653 4.158C29.956 5.469 30.965 7.051 31.682 8.906C32.399 10.763 32.758 12.802 32.758 15.029L32.758 41.744L27.907 41.744L27.907 15.029C27.907 13.437 27.641 11.966 27.113 10.615C26.581 9.263 25.851 8.086 24.925 7.078C23.997 6.071 22.884 5.288 21.585 4.732C20.285 4.174 18.842 3.896 17.252 3.896C13.329 3.896 9.194 4.931 4.848 6.999L4.848 41.744L0 41.744Z"/>
    <path id="shape10" transform="translate(286.145, 8.37742)" fill="#000000" d="M19.755 18.923C23.664 18.923 27.522 19.612 31.327 20.991L31.327 0L36.179 0L36.179 58.6C30.984 60.826 25.974 61.939 21.152 61.939C14.841 61.939 9.755 59.845 5.885 55.657C1.96 51.418 0 46.195 0 39.994C0 33.793 1.749 28.731 5.248 24.808C8.682 20.884 13.518 18.923 19.755 18.923ZM20.229 22.818C15.368 22.818 11.641 24.487 9.053 27.828C6.569 30.957 5.326 35.013 5.326 39.993C5.326 44.977 6.806 49.19 9.765 52.636C12.829 56.346 16.794 58.2 21.656 58.2C24.404 58.2 27.627 57.512 31.326 56.135L31.326 24.808C27.893 23.483 24.192 22.818 20.229 22.818Z"/>
    <path id="shape11" transform="translate(331.465, 27.2204)" fill="#000000" d="M19.208 0C23.463 0 27.077 1.511 30.055 4.531C33.024 7.502 34.509 11.105 34.509 15.345C34.509 17.732 33.671 19.639 31.997 21.07C30.322 22.502 28.209 23.217 25.659 23.217L4.851 23.217C5.064 27.806 6.392 31.577 8.837 34.532C11.442 37.696 14.926 39.277 19.285 39.277C23.537 39.277 27.79 38.51 32.044 36.971L32.044 41.266C27.897 42.537 23.642 43.173 19.285 43.173C12.958 43.173 8.12 41.107 4.771 36.971C1.589 33.104 0 27.988 0 21.626C0 15.424 1.512 10.389 4.533 6.519C7.935 2.175 12.827 0 19.208 0ZM29.658 15.346C29.658 12.485 28.62 9.861 26.547 7.475C24.472 5.09 22.054 3.897 19.289 3.897C14.981 3.897 11.523 5.407 8.918 8.428C6.577 11.24 5.223 14.87 4.851 19.323L25.67 19.323C26.733 19.323 27.664 18.938 28.462 18.17C29.259 17.402 29.658 16.46 29.658 15.346Z"/>
    <path id="shape12" transform="translate(397.777, 12.9874)" fill="#000000" d="M4.851 0L4.851 56.056L0 56.056L0 5.68434e-14Z"/>
    <path id="shape13" transform="translate(415.269, 27.3794)" fill="#000000" d="M0 41.743L0 4.692C8.606 1.564 14.53 0 17.773 0C20.005 0 22.05 0.366 23.909 1.095C25.769 1.826 27.352 2.848 28.653 4.158C29.956 5.469 30.965 7.051 31.683 8.906C32.399 10.763 32.758 12.802 32.758 15.029L32.758 41.744L27.907 41.744L27.907 15.029C27.907 13.437 27.641 11.966 27.111 10.615C26.581 9.264 25.851 8.086 24.925 7.078C23.997 6.071 22.884 5.288 21.585 4.732C20.285 4.174 18.842 3.896 17.252 3.896C13.329 3.896 9.192 4.931 4.848 6.999L4.848 41.744L0 41.744Z"/>
    <path id="shape14" transform="translate(455.022, 28.7314)" fill="#000000" d="M5.169 0L18.687 34.826L31.169 0L35.305 0L20.753 40.313L15.507 40.313L0 0Z"/>
    <path id="shape15" transform="translate(494.299, 27.2204)" fill="#000000" d="M19.209 0C23.464 0 27.08 1.511 30.058 4.531C33.025 7.502 34.51 11.105 34.51 15.345C34.51 17.732 33.673 19.639 31.998 21.07C30.323 22.502 28.21 23.217 25.66 23.217L4.851 23.217C5.064 27.806 6.394 31.577 8.837 34.532C11.442 37.696 14.926 39.277 19.285 39.277C23.539 39.277 27.79 38.51 32.044 36.971L32.044 41.266C27.897 42.537 23.644 43.173 19.285 43.173C12.959 43.173 8.121 41.107 4.771 36.971C1.591 33.104 0 27.988 0 21.626C0 15.424 1.513 10.389 4.533 6.519C7.937 2.175 12.83 0 19.209 0ZM29.659 15.346C29.659 12.485 28.623 9.861 26.548 7.475C24.475 5.09 22.057 3.897 19.29 3.897C14.982 3.897 11.526 5.407 8.919 8.428C6.579 11.24 5.224 14.87 4.852 19.323L25.673 19.323C26.734 19.323 27.667 18.938 28.463 18.17C29.261 17.402 29.659 16.46 29.659 15.346Z"/>
    <path id="shape16" transform="translate(538.35, 27.3794)" fill="#000000" d="M0 41.743L0 4.692C8.607 1.564 14.532 0 17.772 0C20.004 0 22.049 0.366 23.91 1.095C25.768 1.826 27.351 2.848 28.652 4.158C29.956 5.469 30.964 7.051 31.682 8.906C32.399 10.763 32.757 12.802 32.757 15.029L32.757 41.744L27.906 41.744L27.906 15.029C27.906 13.437 27.64 11.966 27.112 10.615C26.582 9.263 25.852 8.086 24.925 7.078C23.997 6.071 22.884 5.288 21.584 4.732C20.285 4.174 18.841 3.896 17.251 3.896C13.328 3.896 9.194 4.931 4.849 6.999L4.849 41.744L0 41.744Z"/>
    <path id="shape17" transform="translate(578.898, 16.3294)" fill="#000000" d="M17.652 54.225C16.274 54.225 15.002 53.998 13.836 53.549C12.67 53.098 11.649 52.463 10.775 51.641C9.9 50.819 9.211 49.852 8.707 48.739C8.204 47.626 7.951 46.407 7.951 45.081L7.951 16.22L0 16.22L0 12.324L7.951 12.324L7.951 0L12.802 0L12.802 12.324L22.583 12.324L22.583 16.22L12.802 16.22L12.802 45.015C12.802 46.39 13.279 47.62 14.234 48.703C15.188 49.788 16.329 50.329 17.653 50.329C19.508 50.329 21.522 49.772 23.695 48.659L23.695 52.715C21.839 53.721 19.825 54.225 17.652 54.225Z"/>
    <path id="shape18" transform="translate(607.204, 27.3004)" fill="#000000" d="M31.885 38.325C27.062 41.558 21.494 43.174 15.188 43.174C10.787 43.174 7.129 42.088 4.214 39.915C1.404 37.687 0 34.826 0 31.327C0 27.458 1.67 24.357 5.01 22.024C8.773 19.375 14.258 18.048 21.468 18.048L27.034 18.048L27.034 12.435C27.034 10.167 26.184 8.192 24.488 6.505C22.794 4.765 20.674 3.895 18.129 3.895C13.251 3.895 8.773 4.691 4.692 6.281L4.692 1.988C8.826 0.664 13.597 0 19.002 0C22.607 0 25.656 1.192 28.148 3.578C30.638 5.912 31.884 8.853 31.884 12.404L31.884 38.325ZM27.034 21.945L21.945 21.945C16.168 21.945 11.795 22.947 8.826 24.953C6.387 26.588 5.169 28.699 5.169 31.285C5.169 33.554 6.096 35.454 7.951 36.984C9.806 38.514 12.325 39.277 15.505 39.277C19.746 39.277 23.588 38.302 27.034 36.351Z"/>
    <path id="shape19" transform="translate(651.092, 27.3804)" fill="#000000" d="M15.982 3.895C12.219 3.895 8.509 4.505 4.852 5.723L4.852 41.743L0 41.743L0 3.247C4.931 1.083 10.416 0 16.46 0C17.043 0 17.547 0 17.971 0C18.395 0 18.74 0.026 19.004 0.079L19.004 4.055C18.261 4.003 17.639 3.963 17.135 3.936C16.631 3.91 16.248 3.895 15.982 3.895Z"/>
    <path id="shape20" transform="translate(677.73, 8.29842)" fill="#000000" d="M0.001 0L4.85 0L4.85 4.849L0.001 4.849ZM4.849 20.433L4.849 60.746L0 60.746L0 20.433Z"/>
    <path id="shape21" transform="translate(692.119, 27.1414)" fill="#000000" d="M38.962 22.104C38.962 28.517 37.343 33.581 34.111 37.292C30.772 41.267 25.947 43.254 19.639 43.254C13.385 43.254 8.507 41.108 5.008 36.814C1.669 32.787 0 27.566 0 21.15C0 14.896 1.643 9.834 4.929 5.962C8.428 1.989 13.304 0 19.56 0C25.708 0 30.532 2.175 34.031 6.521C37.318 10.602 38.962 15.798 38.962 22.104ZM5.328 21.112C5.328 26.348 6.441 30.58 8.667 33.805C11.213 37.506 14.869 39.357 19.64 39.357C24.464 39.357 28.068 37.667 30.453 34.281C32.573 31.372 33.635 27.3 33.635 22.062C33.635 16.879 32.546 12.649 30.374 9.369C27.882 5.721 24.278 3.895 19.561 3.895C14.738 3.895 11.105 5.561 8.667 8.894C6.442 11.91 5.328 15.981 5.328 21.112Z"/>
    <path id="shape22" transform="translate(737.439, 27.1444)" fill="#000000" d="M23.218 5.801C20.369 4.529 17.333 3.893 14.114 3.893C7.991 3.893 4.93 6.2 4.93 10.811C4.93 13.303 6.697 15.45 10.23 17.25L20.197 22.34C23.747 24.779 25.524 27.853 25.524 31.563C25.524 35.539 23.907 38.588 20.673 40.708C17.97 42.35 14.761 43.173 11.053 43.173C6.705 43.173 3.021 42.616 0 41.503L0 36.812C3.499 38.562 7.077 39.435 10.733 39.435C13.33 39.435 15.556 38.8 17.412 37.529C19.479 36.097 20.514 34.267 20.514 32.041C20.514 29.232 18.747 26.875 15.216 24.965C13.581 24.065 11.945 23.217 10.311 22.421C8.676 21.627 7.069 20.752 5.486 19.797C3.604 18.738 2.231 17.481 1.372 16.02C0.511 14.565 0.08 12.987 0.08 11.291C0.08 7.423 1.459 4.506 4.214 2.544C6.652 0.849 9.754 0 13.519 0C16.858 0 20.089 0.556 23.218 1.669Z"/>
   </g>
  </g>
  <g id="group3" transform="translate(439.771, 47.003)" fill="none">
   <g id="group4" transform="" fill="none">
    <path id="shape23" transform="translate(0.624995, 8.29842)" fill="#000000" d="M0.0940234 137.716C0.410023 136.449 0.775023 135.276 1.18802 134.197C1.60002 133.119 1.96402 132.137 2.28202 131.248L53.544 3.615C53.735 2.918 54.257 2.14 55.114 1.283C55.969 0.428 57.126 0 58.586 0L73.897 0C75.418 0 76.512 0.381 77.178 1.141C77.844 1.903 78.335 2.568 78.653 3.139L81.791 10.557L132.008 136.195C132.008 136.384 132.055 136.718 132.151 137.193C132.247 137.67 132.294 138.067 132.294 138.381C132.294 140.283 130.899 141.235 128.109 141.235L109.372 141.235C107.977 141.235 106.9 140.95 106.141 140.38C105.379 139.81 104.744 138.922 104.237 137.717L102.527 133.343C101.321 130.298 100.116 127.255 98.912 124.212C97.707 121.169 96.534 118.094 95.393 114.986L36.712 114.986C35.063 119.425 33.46 123.594 31.908 127.493C30.354 131.391 29.039 134.802 27.961 137.717C27.071 140.065 25.424 141.236 23.015 141.236L3.99502 141.236C2.78902 141.236 1.82102 141.016 1.09302 140.57C0.364023 140.129 2.34337e-05 139.463 2.34337e-05 138.574C-0.000976566 138.191 0.0300234 137.906 0.0940234 137.716ZM66.288 36.236C62.865 44.986 59.456 54.054 56.065 63.436C52.672 72.822 49.264 81.857 45.84 90.542L86.356 90.542Z"/>
    <path id="shape24" transform="translate(153.174, 8.29842)" fill="#000000" d="M0 4.47C0 1.491 1.394 0 4.186 0L62.392 0C68.794 0 74.786 1.206 80.366 3.615C85.945 6.024 90.812 9.29 94.967 13.41C99.119 17.534 102.384 22.383 104.762 27.962C107.139 33.542 108.328 39.47 108.328 45.748C108.328 50.123 107.724 54.307 106.521 58.301C105.315 62.296 103.635 66.007 101.481 69.43C99.325 72.853 96.756 75.944 93.777 78.703C90.796 81.46 87.499 83.79 83.884 85.692L108.613 134.483C108.74 135.118 108.96 135.753 109.277 136.384C109.595 137.02 109.754 137.686 109.754 138.381C109.754 140.283 108.645 141.235 106.425 141.235L84.361 141.235C82.078 141.235 80.557 140.064 79.796 137.716L56.78 92.064C55.764 92.064 54.671 92.082 53.5 92.113C52.325 92.146 50.708 92.16 48.649 92.16C46.586 92.16 43.893 92.16 40.564 92.16C37.235 92.16 32.938 92.16 27.675 92.16L27.675 137.146C27.675 139.873 26.217 141.235 23.301 141.235L4.186 141.235C2.915 141.235 1.903 140.903 1.141 140.237C0.379 139.571 2.27374e-13 138.542 2.27374e-13 137.146ZM80.176 45.89C80.176 43.171 79.668 40.527 78.655 37.966C77.639 35.403 76.214 33.108 74.375 31.085C72.536 29.061 70.347 27.417 67.813 26.149C65.276 24.884 62.516 24.157 59.538 23.966C57.318 23.904 55.147 23.856 53.023 23.823C50.897 23.792 48.696 23.776 46.413 23.776L27.676 23.776L27.676 67.907L52.785 67.907C54.054 67.907 55.243 67.907 56.352 67.907C57.46 67.907 58.649 67.844 59.918 67.716C62.897 67.527 65.64 66.83 68.145 65.628C70.65 64.428 72.788 62.829 74.564 60.835C76.337 58.843 77.718 56.565 78.702 54.003C79.683 51.441 80.176 48.736 80.176 45.89Z"/>
    <path id="shape25" transform="translate(285.467, 8.29842)" fill="#000000" d="M0 4.185C0 3.044 0.365 2.061 1.094 1.236C1.823 0.413 2.856 0 4.186 0L23.493 0C23.936 0 24.428 0.096 24.968 0.285C25.505 0.474 25.998 0.762 26.442 1.14C26.884 1.521 27.265 1.965 27.583 2.472C27.9 2.981 28.06 3.551 28.06 4.185L28.06 60.679L81.415 2.949C82.682 0.984 84.079 5.68434e-14 85.6 5.68434e-14L112.801 5.68434e-14C114.513 5.68434e-14 115.368 0.381 115.368 1.141C115.368 1.65 114.987 2.316 114.227 3.139L64.009 61.631L122.597 137.432C123.547 138.701 124.022 139.619 124.022 140.191C124.022 140.89 123.357 141.236 122.025 141.236L93.114 141.236C91.591 141.236 90.196 140.255 88.929 138.288L44.228 81.319L28.059 98.058L28.059 137.051C28.059 139.843 26.538 141.236 23.494 141.236L4.187 141.236C1.397 141.236 0.001 139.843 0.001 137.051L0.001 4.185Z"/>
    <path id="shape26" transform="translate(418.237, 8.29842)" fill="#000000" d="M0.096 137.716C0.411 136.449 0.777 135.276 1.19 134.197C1.603 133.118 1.965 132.137 2.285 131.248L53.548 3.615C53.737 2.918 54.261 2.14 55.118 1.283C55.973 0.428 57.13 0 58.588 0L73.9 0C75.423 0 76.517 0.381 77.183 1.141C77.849 1.903 78.337 2.568 78.657 3.139L81.796 10.557L132.012 136.195C132.012 136.384 132.061 136.718 132.157 137.193C132.251 137.67 132.3 138.067 132.3 138.381C132.3 140.283 130.903 141.235 128.114 141.235L109.378 141.235C107.982 141.235 106.905 140.95 106.144 140.38C105.383 139.81 104.749 138.922 104.243 137.717L102.53 133.343C101.326 130.298 100.119 127.255 98.918 124.212C97.71 121.169 96.539 118.094 95.398 114.986L36.715 114.986C35.066 119.425 33.465 123.594 31.913 127.493C30.357 131.391 29.044 134.802 27.967 137.717C27.077 140.065 25.43 141.236 23.021 141.236L3.995 141.236C2.79 141.236 1.822 141.016 1.096 140.57C0.365 140.129 0 139.463 0 138.574C0 138.191 0.032 137.906 0.096 137.716ZM66.293 36.236C62.867 44.986 59.459 54.054 56.066 63.436C52.675 72.822 49.266 81.857 45.842 90.542L86.359 90.542Z"/>
    <path id="shape27" transform="translate(630.515, 8.29842)" fill="#000000" d="M2.27374e-13 4.185C2.27374e-13 3.044 0.347 2.061 1.041 1.236C1.736 0.413 2.779 0 4.169 0L23.03 0C24.105 0 25.116 0.381 26.063 1.141C27.01 1.903 27.485 2.918 27.485 4.185L27.485 137.05C27.485 139.842 26 141.235 23.03 141.235L4.169 141.235C1.39 141.235 0 139.842 0 137.05Z"/>
    <path id="shape28" transform="translate(689.004, 8.29842)" fill="#000000" d="M2.27374e-13 4.185C2.27374e-13 3.044 0.347 2.061 1.042 1.236C1.736 0.413 2.779 0 4.169 0L23.032 0C24.105 0 25.116 0.381 26.065 1.141C27.012 1.903 27.486 2.918 27.486 4.185L27.486 137.05C27.486 139.842 26.001 141.235 23.032 141.235L4.169 141.235C1.39 141.235 0 139.842 0 137.05Z"/>
   </g>
  </g>
 </g>
</svg>
